PathFileType	4	(X/Y/Z)	/home/abdul/Desktop/myosuite/custom_workspace/IK/output/S13_12_2.trc
DataRate	CameraRate	NumFrames	NumMarkers	Units	OrigDataRate	OrigDataStartFrame	OrigNumFrames
200.0	200.0	67	3	mm	200.0	351	1403
Frame#	Time	V_Shoulder			V_Elbow			V_Wrist		
		X1	Y1	Z1	X2	Y2	Z2	X3	Y3	Z3

351	1.75	-71.19705038186788	585.3282341062808	337.2399495720877	-193.80676398508746	454.02022109400724	30.421376261221948	-110.08393308303307	198.27998260603874	48.120125283606455
352	1.755	-71.16084253587339	585.2660319205825	337.2320541550789	-193.7722139674949	454.0288789061851	30.378691475967685	-109.99453421602297	198.29766247922507	47.96709937362017
353	1.76	-71.12680026553282	585.2060465406813	337.2236729797237	-193.74159436700202	454.04277168441166	30.334187427715932	-109.90821854296635	198.320925474835	47.8172765833791
354	1.765	-71.09492182967445	585.1482834410102	337.21482240960285	-193.7148753889332	454.06190272416643	30.28786909751617	-109.82479437175482	198.3498331910854	47.67096853497832
355	1.77	-71.0652047084416	585.0927483364599	337.2055192394957	-193.69203007791998	454.08627394969415	30.239745602693723	-109.74407274368582	198.3844484640145	47.5284997295889
356	1.775	-71.03764559768376	585.0394471991484	337.1957806907656	-193.67303438879551	454.11588590136625	30.189830251749036	-109.66586775375231	198.42483544270718	47.39020747170807
357	1.78	-71.0122404042526	584.9883862742153	337.1856244055913	-193.65786724428457	454.1507377191209	30.138140589241623	-109.58999685017596	198.4710596657199	47.25644176483389
358	1.785	-70.98898424222102	584.9395720946222	337.1750684400428	-193.64651057929856	454.19082712185593	30.08469843058765	-109.51628111219487	198.52318813853452	47.12756517786409
359	1.79	-70.96787143004131	584.893011494945	337.1641312560064	-193.63894937169414	454.2361503826859	30.02952988672084	-109.44454550526075	198.58128941185308	47.00395268156213
360	1.795	-70.94889548865511	584.8487116241362	337.1528317119632	-193.63517165940337	454.2867023000216	29.972665378586907	-109.37461911294949	198.64543366053297	46.88599145448114
361	1.8	-70.93204914056557	584.8066799572447	337.14118905263325	-193.63516854389167	454.34247616446703	29.91413964146243	-109.3063353450386	198.7156927629403	46.77408065778799
362	1.805	-70.91732430987922	584.7669243060727	337.1292228974972	-193.6389341799478	454.4034637215699	29.853991719109366	-109.23953212135716	198.7921403804823	46.668631178485576
363	1.81	-70.9047121233226	584.7294528287572	337.1169532282132	-193.646465751856	454.4696551305017	29.792264947797044	-109.17405203116544	198.87485203705796	46.57006534059112
364	1.815	-70.89420291223554	584.6942740382568	337.1044003749512	-193.6577634360457	454.54103891877924	29.72900693024392	-109.10974246797353	198.96390519814287	46.47881658389308
365	1.82	-70.88578621554082	584.6613968097323	337.0915850016665	-193.6728303503591	454.61760193317866	29.664269499551825	-109.0464557398569	199.05937934920217	46.39532910997754
366	1.825	-70.87945078368692	584.6308303868037	337.0785280903428	-193.6916724901176	454.6993292870243	29.59810867322588	-108.98404915547545	199.16135607310082	46.32005749528848
367	1.83	-70.87518458355835	584.6025843866706	337.06525092423357	-193.71429865121092	454.7862043040702	29.530584597393812	-108.92238508614508	199.2699191261558	46.25346627106367
368	1.835	-70.87297480434515	584.5766688040818	337.05177507013747	-193.74072034047066	454.87820845922136	29.461761481358785	-108.86133100445085	199.38515451245058	46.19602947007044
369	1.84	-70.87280786436088	584.5530940141415	337.0381223597444	-193.77095167362796	454.97532131637115	29.391707522640594	-108.80075950002433	199.50715055600654	46.14823014015174
370	1.845	-70.87466941879623	584.5318707739395	337.0243148700929	-193.8050092611922	455.07752046365624	29.320494822680423	-108.740548273236	199.6359979703825	46.11055982468418
371	1.85	-70.87854436839234	584.5130102229931	337.0103749031817	-193.84291208261993	455.1847814464552	29.24819929340527	-108.68058010767461	199.7717899252492	46.08351801014493
372	1.855	-70.88441686901665	584.4965238824892	336.9963249647822	-193.88468134917719	455.2970776984782	29.1749005548686	-108.62074282239831	199.91462210946383	46.06761154108352
373	1.86	-70.89227034212108	584.4824236533187	336.98218774250023	-193.93034035592925	455.4143804713111	29.100681824204425	-108.56092920504845	200.06459279014766	46.06335400289839
374	1.865	-70.90208748606086	584.4707218128891	336.9679860831379	-193.97991432332012	455.53665876279763	29.025629796152874	-108.50103692701231	200.2218028672507	46.07126507292472
375	1.87	-70.91385028824972	584.4614310107107	336.95374296940884	-194.03343022883274	455.6638792446513	28.949834515435754	-108.44096844190899	200.38635592306989	46.09186984045106
376	1.875	-70.9275400381261	584.4545642627453	336.9394814960644	-194.09091662924655	455.79600618970346	28.873389241281252	-108.38063086874928	200.55835826617266	46.12569809639606
377	1.88	-70.9431373409024	584.4501349445114	336.9252248454855	-194.15240347403352	455.9330013991971	28.79639030441756	-108.3199358611868	200.7379189691643	46.173283593492854
378	1.885	-70.9606221320684	584.4481567829412	336.9109962628024	-194.21792191045785	456.0748241305446	28.718936956875215	-108.25879946433501	200.9251498997303	46.23516327794811
379	1.89	-70.97997369261766	584.448643846981	336.89681903060165	-194.28750408096482	456.22143102596567	28.64113121495832	-108.19714196066873	201.12016574437774	46.31187649366324
380	1.895	-71.00117066496502	584.4516105369354	336.8827164432848	-194.3611829134672	456.3727760424254	28.563077695764434	-108.13488770656397	201.32308402429854	46.40396416022786
381	1.9	-71.02419106952118	584.4570715725489	336.8687117811403	-194.43899190515452	456.52881038328354	28.484883447652486	-108.07196496105243	201.53402510277783	46.51196792601857
382	1.905	-71.04901232189012	584.4650419798271	336.8548282841959	-194.52096490047097	456.68948243206665	28.406657775077065	-108.00830570837923	201.75311218357922	46.63642929785966
383	1.91	-71.0756112506532	584.4755370765947	336.84108912591546	-194.6071358639236	456.8547376887609	28.328512058225854	-107.94384547595328	201.9804712997469	46.77788874882513
384	1.915	-71.10396411570302	584.4885724567952	336.82751738680696	-194.69753864839882	457.0245187090152	28.250559567914838	-107.87852314926909	202.21623129228107	46.93688480588359
385	1.92	-71.13404662708966	584.5041639735335	336.8141360280096	-194.79220675968037	457.1987650466324	28.172915276212976	-107.8122807853577	202.4605237781613	47.11395311920738
386	1.925	-71.16583396434073	584.5223277208676	336.80096786492504	-194.89117311787578	457.3774131997101	28.095695663284296	-107.74506342629374	202.71348310721828	47.30962551508523
387	1.93	-71.19930079621625	584.5430800143555	336.78803554096066	-194.99446981647137	457.5603965607767	28.019018520950414	-107.67681891424228	202.97524630738263	47.52442903449176
388	1.935	-71.2344213008591	584.5664373703676	336.7753615014512	-195.10212787974797	457.74764537125066	27.943002753490738	-107.607497709479	203.24595301787394	47.75888495947744
389	1.94	-71.27116918630101	584.5924164841739	336.76296796782464	-195.2141770193001	457.9390866805298	27.867768176210348	-107.53705271275595	203.5257454099311	48.01350782964809
390	1.945	-71.30951771128424	584.6210342068201	336.75087691207847	-195.3306453904119	458.13464430999784	27.793435312317147	-107.46543909331527	203.81476809472824	48.28880445110254
391	1.95	-71.34943970635902	584.6523075208062	336.7391100316286	-195.45155934905063	458.334238822212	27.720125188659765	-107.39261412377643	204.11316801816804	48.58527290029052
392	1.955	-71.39090759521632	584.6862535145856	336.72768872459807	-195.5769432102465	458.53778749551213	27.647959130886075	-107.31853702303673	204.4210943422958	48.90340152533871
393	1.96	-71.43389341621635	584.7228893559052	336.7166340656019	-195.70681900863278	458.7452043042679	27.577058558588856	-107.2431688082338	204.73869831313326	49.24366794747124
394	1.965	-71.47836884407292	584.762232264005	336.7059667820943	-195.84120626192487	458.95639990495647	27.507544781009692	-107.1664721567209	205.06613311479055	49.60653806522012
395	1.97	-71.52430521165435	584.804299480705	336.6957072313318	-195.9801217381193	459.1712816282364	27.439538793875304	-107.08841127890324	205.4035537097759	49.99246506418128
396	1.975	-71.57167353186209	584.849108240404	336.6858753780116	-196.1235792271944	459.3897534771579	27.373161077940797	-107.00895180267602	205.7511166654897	50.40188843512157
397	1.98	-71.62044451954874	584.896675739019	336.67649077263854	-196.27158931809342	459.6117161316264	27.30853139981303	-106.92806067009514	206.10897996695542	50.83523300328186
398	1.985	-71.67058861343777	584.9470191018971	336.66757253067277	-196.42415918176644	459.83706695920637	27.24576861562362	-106.84570604679763	206.47730281590992	51.292907971748974
399	1.99	-71.72207599800822	585.0001553507356	336.65913931250685	-196.58129236104287	460.06570003233116	27.184990478114784	-106.76185724457437	206.85624541644674	51.77530598178607
400	1.995	-71.77487662530812	585.0561013695464	336.65120930431993	-196.7429885680971	460.29750615195684	27.126313447692866	-106.67648465738165	207.24596874747692	52.28280219301499
401	2.0	-71.82896023666171	585.1148738697028	336.6438001998517	-196.9092434902586	460.53237287767286	27.069852507993577	-106.5895597109623	207.64663432234468	52.81575338633597
402	2.005	-71.88429638423626	585.1764893541135	336.6369291831381	-197.08004860490473	460.77018456426305	27.01572098648944	-106.50105482613223	208.05840393600636	53.374497092449374
403	2.01	-71.94085445243562	585.2409640805668	336.6306129122456	-197.2553910041564	461.0108224046819	26.964030380654183	-106.4109433956746	208.48143940025267	53.959350748809634
404	2.015	-71.99860367908849	585.3083140242936	336.6248675040384	-197.43525323007702	461.254164479392	26.914890190180493	-106.31919977467294	208.91590226752314	54.57061088779503
405	2.02	-72.05751317640103	585.3785548397996	336.61970852001	-197.6196131210511	461.500085811987	26.86840775572684	-106.22579928400705	209.36195354392999	55.20855235881623
406	2.025	-72.11755195164406	585.4517018220189	336.6151509532064	-197.80844366999236	461.74845843100456	26.824688104645848	-106.13071822663096	209.81975339217377	55.87342758701351
407	2.03	-72.17868892754733	585.5277698668465	336.61120921626406	-198.00171289500025	461.99915143781465	26.783833804121407	-106.03393391615373	210.28946082509532	56.56546587110601
408	2.035	-72.24089296237375	585.6067734311047	336.6078971305833	-198.19938372304932	462.2520310804514	26.745944822113813	-105.93542471714986	210.771233390668	57.284872722857436
409	2.04	-72.3041328696489	585.6887264920088	336.60522791665375	-198.40141388725817	462.50696083324215	26.711118396482256	-105.83517009653696	211.265226849288	58.031829250511095
410	2.045	-72.36837743752156	585.7736425061922	336.60321418554304	-198.60775583824346	462.76380148207096	26.679448912622362	-105.7331506852779	211.77159484427312	58.80649158842327
411	2.05	-72.43359544773345	585.8615343683574	336.60186793155884	-198.81835667001855	463.0224112151021	26.651027789922157	-105.62934834958865	212.29048856652363	59.60899037498926
412	2.055	-72.49975569417718	585.9524143696227	336.6012005260879	-199.0331580608485	463.282645718778	26.62594337730446	-105.52374627076586	212.82205641434203	60.439430280809546
413	2.06	-72.56682700102373	586.0462941556324	336.60122271261355	-199.25209622941978	463.54435827889404	26.604280858086224	-105.41632903268804	213.3664436494421	61.29788958888727
414	2.065	-72.63477824040126	586.1431846845055	336.601944602909	-199.47510190662967	463.8073998865482	26.586122164346623	-105.30708271599238	213.92379205020865	62.18441982848131
415	2.07	-72.70357834961003	586.2430961846961	336.60337567439797	-199.7021003232399	464.0716193487531	26.57154590095567	-105.19599499788451	214.49423956329161	63.09904546406406
416	2.075	-72.77319634785839	586.3460381128428	336.6055247686747	-199.93301121357948	464.3368634034935	26.560627279373914	-105.08305525650383	215.07791995463646	64.04176364064918
417	2.08	-72.84360135250749	586.4520191116843	336.60840009116606	-200.16774883541711	464.60297683901126	26.55343806129177	-104.96825467873907	215.67496246106464	65.01254398656344
